<svg width="95" height="95" viewBox="0 0 95 95" fill="none" xmlns="http://www.w3.org/2000/svg">
<g clip-path="url(#clip0_417_6457)">
<path d="M9.76494 48.3341C9.76494 48.8122 10.1526 49.1983 10.6321 49.1983H34.5054C34.9819 49.1983 35.3696 48.8106 35.3696 48.3341V39.6801C35.3696 39.2019 34.9819 38.8145 34.5054 38.8145H10.6321C10.154 38.8145 9.76494 39.2021 9.76494 39.6801V48.3341Z" fill="#E0AE4E"/>
<path d="M9.76492 48.334V39.6801C9.76492 39.2019 10.1526 38.8145 10.6321 38.8145H15.6699C16.1481 38.8145 16.5371 39.2021 16.5371 39.6801V48.334C16.5371 48.8121 16.1494 49.1982 15.6699 49.1982H10.6321C10.1524 49.1998 9.76492 48.8121 9.76492 48.334Z" fill="#E0AE4E"/>
<path d="M17.556 38.1304C17.556 38.6085 17.9437 38.9946 18.4216 38.9946H42.2951C42.7732 38.9946 43.1607 38.607 43.1607 38.1304V29.4764C43.1607 28.9983 42.773 28.6108 42.2951 28.6108H18.4218C17.9437 28.6108 17.5562 28.9985 17.5562 29.4764V38.1304H17.556Z" fill="#E0AE4E"/>
<path d="M17.556 38.1304V29.4764C17.556 28.9983 17.9437 28.6108 18.4216 28.6108H23.461C23.9392 28.6108 24.3282 28.9985 24.3282 29.4764V38.1304C24.3282 38.6085 23.9405 38.9946 23.461 38.9946H18.4216C17.9452 38.9962 17.556 38.6085 17.556 38.1304Z" fill="#E0AE4E"/>
<path d="M24.8861 48.3341C24.8861 48.8122 25.2738 49.1983 25.7503 49.1983H49.6236C50.1017 49.1983 50.4908 48.8106 50.4908 48.3341V39.6801C50.4908 39.2019 50.1031 38.8145 49.6236 38.8145H25.7503C25.2738 38.8145 24.8861 39.2021 24.8861 39.6801V48.3341Z" fill="#E0AE4E"/>
<path d="M24.8861 48.334V39.6801C24.8861 39.2019 25.2738 38.8145 25.7504 38.8145H30.7944C31.271 38.8145 31.6587 39.2021 31.6587 39.6801V48.334C31.6587 48.8121 31.271 49.1982 30.7944 49.1982H25.7504C25.2738 49.1998 24.8861 48.8121 24.8861 48.334Z" fill="#E0AE4E"/>
<path d="M60.7551 41.4378C60.7551 43.8969 62.7501 45.8904 65.2076 45.8904H72.8763C75.3354 45.8904 77.3289 43.8969 77.3289 41.4378V32.0362C77.3289 29.5771 75.3354 29.3164 72.8763 29.3164H65.2076C62.7499 29.3164 60.7551 29.5769 60.7551 32.0362V41.4378Z" fill="#E0AE4E"/>
<path d="M54.3228 47.5621C54.3228 50.0212 56.3178 52.0147 58.7753 52.0147H79.31C81.7678 52.0147 83.7626 50.0212 83.7626 47.5621V42.8627C83.7626 40.4036 81.7676 38.4102 79.31 38.4102H58.7753C56.3176 38.4102 54.3228 40.4036 54.3228 42.8627V47.5621Z" fill="#E0AE4E"/>
<path d="M86.0795 49.8521C86.0811 49.9363 86.0918 50.016 86.0918 50.0987C86.0918 61.1658 68.8131 70.1368 47.4985 70.1368C26.1839 70.1368 8.90518 61.1658 8.90518 50.0987C8.90518 50.016 8.91589 49.9363 8.91744 49.8521H86.0795Z" fill="#E0AE4E"/>
<path d="M47.4985 70.1368C26.1839 70.1368 8.90518 61.1658 8.90518 50.0987C8.90518 50.016 8.91589 49.9363 8.91744 49.8521H86.0795C86.0811 49.9363 86.0918 50.016 86.0918 50.0987" fill="#3B4D56"/>
<path d="M4.97248 65.1147C7.27227 65.1147 9.38066 64.3149 11.0492 62.9834C12.7178 64.3133 14.8262 65.1147 17.126 65.1147C19.4229 65.1147 21.5326 64.3149 23.2012 62.9834C24.8698 64.3133 26.9766 65.1147 29.2764 65.1147C31.5747 65.1147 33.6831 64.3149 35.3516 62.9834C37.0202 64.3133 39.13 65.1147 41.4284 65.1147C43.7253 65.1147 45.8366 64.3149 47.5036 62.9834C49.1737 64.3133 51.2819 65.1147 53.5788 65.1147C55.8771 65.1147 57.987 64.3149 59.654 62.9834C61.3242 64.3133 63.4324 65.1147 65.7308 65.1147C68.0292 65.1147 70.1374 64.3149 71.8076 62.9834C73.4746 64.3133 75.5859 65.1147 77.8812 65.1147C80.181 65.1147 82.291 64.3149 83.958 62.9834C85.625 64.3133 87.7363 65.1147 90.0347 65.1147C91.8535 65.1147 93.5481 64.6076 95.0037 63.7418V71.1071C93.5481 71.9713 91.8519 72.4784 90.0347 72.4784C87.7365 72.4784 85.625 71.6801 83.958 70.3471C82.291 71.6786 80.181 72.4784 77.8812 72.4784C75.5859 72.4784 73.4746 71.6801 71.8076 70.3471C70.1374 71.6786 68.0292 72.4784 65.7308 72.4784C63.4324 72.4784 61.3242 71.6801 59.654 70.3471C57.987 71.6786 55.8771 72.4784 53.5788 72.4784C51.2819 72.4784 49.1737 71.6801 47.5036 70.3471C45.8366 71.6786 43.7253 72.4784 41.4284 72.4784C39.1302 72.4784 37.0202 71.6801 35.3516 70.3471C33.6831 71.6786 31.5747 72.4784 29.2764 72.4784C26.9782 72.4784 24.8698 71.6801 23.2012 70.3471C21.5326 71.6786 19.4229 72.4784 17.126 72.4784C14.8262 72.4784 12.7178 71.6801 11.0492 70.3471C9.38066 71.6786 7.27227 72.4784 4.97248 72.4784C3.15684 72.4784 1.46063 71.9729 0.00349426 71.1071V63.7418C1.46063 64.6074 3.15839 65.1147 4.97248 65.1147Z" fill="#E0AE4E"/>
<path d="M11.0492 77.7114C12.7178 79.0398 14.8262 79.8412 17.126 79.8412C19.4229 79.8412 21.5326 79.0414 23.2012 77.7114C24.8698 79.0398 26.9766 79.8412 29.2764 79.8412C31.5747 79.8412 33.6831 79.0414 35.3516 77.7114C37.0202 79.0398 39.13 79.8412 41.4284 79.8412C43.7253 79.8412 45.8366 79.0414 47.5036 77.7114C49.1737 79.0398 51.2819 79.8412 53.5788 79.8412C55.8771 79.8412 57.987 79.0414 59.654 77.7114C61.3242 79.0398 63.4324 79.8412 65.7308 79.8412C68.0292 79.8412 70.1374 79.0414 71.8076 77.7114C73.4746 79.0398 75.5859 79.8412 77.8812 79.8412C80.181 79.8412 82.291 79.0414 83.958 77.7114C85.625 79.0398 87.7363 79.8412 90.0347 79.8412C91.8535 79.8412 93.5481 79.3357 95.0037 78.4683V85.8336C93.5481 86.6992 91.8519 87.2049 90.0347 87.2049C87.7365 87.2049 85.625 86.405 83.958 85.0751C82.291 86.4035 80.181 87.2049 77.8812 87.2049C75.5859 87.2049 73.4746 86.405 71.8076 85.0751C70.1374 86.4035 68.0292 87.2049 65.7308 87.2049C63.4324 87.2049 61.3242 86.405 59.654 85.0751C57.987 86.4035 55.8771 87.2049 53.5788 87.2049C51.2819 87.2049 49.1737 86.405 47.5036 85.0751C45.8366 86.4035 43.7253 87.2049 41.4284 87.2049C39.1302 87.2049 37.0202 86.405 35.3516 85.0751C33.6831 86.4035 31.5747 87.2049 29.2764 87.2049C26.9782 87.2049 24.8698 86.405 23.2012 85.0751C21.5326 86.4035 19.4229 87.2049 17.126 87.2049C14.8262 87.2049 12.7178 86.405 11.0492 85.0751C9.38066 86.4035 7.27227 87.2049 4.97248 87.2049C3.15684 87.2049 1.46063 86.7007 0.00349426 85.8336V78.4683C1.46063 79.3339 3.15839 79.8412 4.97248 79.8412C7.27227 79.8412 9.38066 79.0398 11.0492 77.7114Z" fill="#E0AE4E"/>
<path d="M84.7082 55.415C83.7996 57.1251 82.4728 58.746 80.7797 60.2385H14.2175C12.5244 58.7446 11.1961 57.1251 10.289 55.415H84.7082Z" fill="#F4D314"/>
<path d="M75.8488 55.415L66.5574 60.2385H14.2187C13.8034 59.8722 13.4113 59.497 13.0405 59.1169C13.0267 59.1047 13.016 59.0924 13.0069 59.0833C12.2591 58.3095 11.6034 57.5096 11.0502 56.6839V56.6808C10.7713 56.267 10.5215 55.8488 10.2964 55.4244C10.2964 55.4228 10.2933 55.4197 10.2933 55.4197L75.8488 55.415Z" fill="#E0AE4E"/>
<path d="M6.92722 49.1079C6.92722 49.6549 7.37151 50.0976 7.91714 50.0976H87.0801C87.6255 50.0976 88.0698 49.6549 88.0698 49.1079C88.0698 48.5624 87.6255 48.1182 87.0801 48.1182H7.91694C7.37306 48.1197 6.92722 48.5624 6.92722 49.1079Z" fill="#3B4D56"/>
<path d="M69.9086 31.6663C69.9086 32.1444 69.5225 32.5319 69.043 32.5319C68.5649 32.5319 68.1788 32.1442 68.1788 31.6663V8.65858C68.1788 8.18045 68.5665 7.79297 69.043 7.79297C69.5225 7.79297 69.9086 8.1822 69.9086 8.65858V31.6663Z" fill="#E0AE4E"/>
<path d="M77.4546 42.9838C77.4546 43.6335 77.9833 44.1604 78.6299 44.1604C79.2796 44.1604 79.8052 43.6333 79.8052 42.9838C79.8052 42.3357 79.2796 41.8101 78.6299 41.8101C77.9833 41.8116 77.4546 42.3357 77.4546 42.9838Z" fill="#3B4D56"/>
<path d="M72.8151 42.9838C72.8151 43.6335 73.3438 44.1604 73.9903 44.1604C74.6416 44.1604 75.167 43.6333 75.167 42.9838C75.167 42.3357 74.6414 41.8101 73.9903 41.8101C73.3438 41.8116 72.8151 42.3357 72.8151 42.9838Z" fill="#3B4D56"/>
<path d="M68.1802 42.9838C68.1802 43.6335 68.7089 44.1604 69.3555 44.1604C70.0052 44.1604 70.5292 43.6333 70.5292 42.9838C70.5292 42.3357 70.0052 41.8101 69.3555 41.8101C68.7089 41.8116 68.1802 42.3357 68.1802 42.9838Z" fill="#3B4D56"/>
<path d="M63.5439 42.9838C63.5439 43.6335 64.071 44.1604 64.7176 44.1604C65.3688 44.1604 65.8942 43.6333 65.8942 42.9838C65.8942 42.3357 65.3686 41.8101 64.7176 41.8101C64.0694 41.8116 63.5439 42.3357 63.5439 42.9838Z" fill="#3B4D56"/>
<path d="M57.7872 48.6144C57.7872 49.5689 58.5625 50.3458 59.5186 50.3458C60.4746 50.3458 61.25 49.5689 61.25 48.6144V43.1688C61.25 42.2143 60.4746 41.439 59.5186 41.439C58.5625 41.439 57.7872 42.2143 57.7872 43.1688V48.6144Z" fill="#3B4D56"/>
</g>
<defs>
<clipPath id="clip0_417_6457">
<rect width="95" height="95" fill="white" transform="matrix(-1 0 0 1 95 0)"/>
</clipPath>
</defs>
</svg>
